:SAMPLES-PER-SECOND 30
:FULLY-SPECIFIED
:DEGREES
311
root  -0.00782298 33.7272 -4.31363 -0.393109 37.7004 -5.90094
LeftUpLeg  -13.3884 -3.38545 17.6008
LeftLeg  13.3133 -1.31486 -0.224662
LeftFoot  8.56239 0.0176204 -0.218625
LeftToes  -32.3835 8.556e-007 1.17171e-007
Spine  2.69935 1.95403 2.85807
Spine1  5.3628 3.95539 5.53987
RightShoulder  0.0770753 5.82486 7.04432
RightArm  -29.8565 -10.3753 67.3972
RightForeArm  24.6629 23.503 4.39295
RightHand  1.05868 -12.443 -9.31368
LeftShoulder1  0.0180425 1.41672 -9.78346
LeftArm  -14.49 13.2481 -72.9469
LeftForeArm  26.654 -20.7201 -3.81732
LeftHand  0.127985 4.7473 2.76274
HEad  -17.0587 38.1755 -11.5709
RightUpLeg  -7.44714 -9.32577 6.09732
RightLeg  12.7601 3.61812 0.57882
RightFoot  -2.00569 -0.00876522 -0.112219
RightToes  -28.23 -0.132255 -0.239952
312
root  -0.0673808 33.718 -4.27754 -0.363409 37.8335 -5.88707
LeftUpLeg  -13.2878 -3.15746 17.6888
LeftLeg  12.9067 -1.66689 -0.27218
LeftFoot  8.8026 0.0221324 -0.280235
LeftToes  -32.426 8.556e-007 1.17171e-007
Spine  2.68859 1.94489 2.86323
Spine1  5.33846 3.94066 5.5449
RightShoulder  0.0802931 5.77285 7.2312
RightArm  -29.559 -10.7055 67.5216
RightForeArm  24.7995 22.7616 4.23788
RightHand  1.07145 -12.4348 -9.43967
LeftShoulder1  0.0180425 1.44049 -9.83521
LeftArm  -14.5268 13.3255 -72.9139
LeftForeArm  26.4809 -20.7452 -3.82244
LeftHand  0.129559 4.6831 2.83421
HEad  -17.3172 38.3188 -11.6016
RightUpLeg  -7.56926 -9.37241 6.21397
RightLeg  12.9433 3.51601 0.574026
RightFoot  -2.16286 -0.00981653 -0.118189
RightToes  -28.0091 -0.130877 -0.23848
313
root  -0.117298 33.7053 -4.24381 -0.36177 38.0185 -5.91124
LeftUpLeg  -13.2758 -3.02713 17.7922
LeftLeg  12.6636 -1.97282 -0.313225
LeftFoot  8.97227 0.0264124 -0.336651
LeftToes  -32.658 8.556e-007 1.17171e-007
Spine  2.6512 1.94262 2.89588
Spine1  5.25968 3.94365 5.59346
RightShoulder  0.0872023 5.76368 7.46041
RightArm  -29.489 -11.3187 67.5772
RightForeArm  25.2384 21.8102 4.04137
RightHand  1.0804 -12.4742 -9.48663
LeftShoulder1  0.0180425 1.4246 -9.81029
LeftArm  -14.5259 13.4891 -72.9762
LeftForeArm  26.5004 -20.6783 -3.80893
LeftHand  0.128909 4.7027 2.79664
HEad  -16.8895 38.3058 -11.5852
RightUpLeg  -7.68736 -9.53506 6.32993
RightLeg  13.1472 3.50344 0.584738
RightFoot  -2.33733 -0.0106073 -0.128669
RightToes  -27.839 -0.129689 -0.237142
314
root  -0.162938 33.6903 -4.21856 -0.332497 38.1567 -5.92458
LeftUpLeg  -13.3206 -2.95103 17.8828
LeftLeg  12.5278 -2.17378 -0.339674
LeftFoot  9.08212 0.0299834 -0.377524
LeftToes  -32.7165 8.556e-007 1.17171e-007
Spine  2.60163 1.95302 2.95095
Spine1  5.15537 3.97408 5.67898
RightShoulder  0.0978689 5.81066 7.70581
RightArm  -29.8554 -11.9622 67.5913
RightForeArm  26.2724 20.3773 3.75028
RightHand  1.06282 -12.5067 -9.30177
LeftShoulder1  0.0180425 1.45833 -9.77924
LeftArm  -14.5233 13.6807 -73.1029
LeftForeArm  26.6899 -20.5474 -3.78249
LeftHand  0.126026 4.8212 2.66663
HEad  -16.2807 38.3128 -11.5434
RightUpLeg  -7.86727 -9.59175 6.43344
RightLeg  13.4193 3.42554 0.588773
RightFoot  -2.52322 -0.011531 -0.137318
RightToes  -27.6264 -0.128548 -0.235837
315
root  -0.206156 33.6751 -4.19704 -0.286435 38.2885 -5.9383
LeftUpLeg  -13.399 -2.91715 17.9706
LeftLeg  12.4369 -2.32027 -0.358676
LeftFoot  9.17236 0.0333439 -0.410972
LeftToes  -32.7648 8.556e-007 1.17171e-007
Spine  2.57026 1.94356 3.0052
Spine1  5.08645 3.95773 5.76891
RightShoulder  0.109634 5.94088 7.95545
RightArm  -30.5979 -12.6379 67.6002
RightForeArm  27.6294 18.7236 3.42109
RightHand  1.04868 -12.6598 -9.05783
LeftShoulder1  0.0180425 1.53276 -9.78136
LeftArm  -14.5961 13.8527 -73.1971
LeftForeArm  26.8385 -20.3937 -3.75153
LeftHand  0.12551 4.82878 2.62633
HEad  -16.4146 38.3654 -11.6205
RightUpLeg  -8.04998 -9.65251 6.53431
RightLeg  13.6582 3.36213 0.591953
RightFoot  -2.70254 -0.0124291 -0.146362
RightToes  -27.5338 -0.127312 -0.234465
316
root  -0.250066 33.6597 -4.18639 -0.229898 38.3617 -5.96444
LeftUpLeg  -13.4949 -2.8609 18.0644
LeftLeg  12.3546 -2.43357 -0.37252
LeftFoot  9.30448 0.0366479 -0.442067
LeftToes  -33.1159 8.556e-007 1.17171e-007
Spine  2.55935 1.94515 3.0373
Spine1  5.05999 3.95252 5.83035
RightShoulder  0.120046 6.10905 8.19434
RightArm  -31.7525 -13.4171 67.6456
RightForeArm  29.1464 17.0892 3.10206
RightHand  1.03825 -12.7898 -8.86936
LeftShoulder1  0.0180425 1.57572 -9.81034
LeftArm  -14.8396 14.058 -73.2281
LeftForeArm  26.9101 -20.3561 -3.74396
LeftHand  0.124842 4.87868 2.62467
HEad  -16.8343 38.3801 -11.7372
RightUpLeg  -8.24364 -9.71507 6.63926
RightLeg  13.8479 3.36736 0.604326
RightFoot  -2.83807 -0.0132322 -0.156651
RightToes  -27.4511 -0.127312 -0.234465
317
root  -0.292587 33.6475 -4.1822 -0.174137 38.4451 -5.99023
LeftUpLeg  -13.5812 -2.81217 18.1439
LeftLeg  12.2299 -2.53393 -0.382159
LeftFoot  9.41104 0.0398304 -0.470203
LeftToes  -33.1395 8.556e-007 1.17171e-007
Spine  2.5319 1.93258 3.05854
Spine1  5.00337 3.90729 5.8889
RightShoulder  0.127015 6.32078 8.36128
RightArm  -33.0583 -14.4161 67.7287
RightForeArm  30.5544 15.6369 2.82332
RightHand  1.05935 -13.0029 -8.90121
LeftShoulder1  0.0180425 1.5375 -9.80795
LeftArm  -15.0662 14.3455 -73.2457
LeftForeArm  26.9552 -20.2463 -3.72192
LeftHand  0.12517 4.88317 2.66194
HEad  -16.8672 38.3084 -11.7352
RightUpLeg  -8.39071 -9.83613 6.73838
RightLeg  13.9192 3.39765 0.614093
RightFoot  -2.90434 -0.0127218 -0.164578
RightToes  -27.3689 -0.127312 -0.234465
318
root  -0.328262 33.6424 -4.18105 -0.118051 38.5119 -5.99669
LeftUpLeg  -13.6075 -2.69419 18.1849
LeftLeg  12.0256 -2.68301 -0.394746
LeftFoot  9.56247 0.0436462 -0.507511
LeftToes  -33.069 8.556e-007 1.17171e-007
Spine  2.50221 1.90618 3.08302
Spine1  4.94618 3.82607 5.96762
RightShoulder  0.128498 6.43397 8.44134
RightArm  -33.9938 -15.4576 67.8195
RightForeArm  31.5171 14.4651 2.60147
RightHand  1.10242 -13.3027 -9.05829
LeftShoulder1  0.0180425 1.51815 -9.7868
LeftArm  -15.0936 14.563 -73.2769
LeftForeArm  26.9658 -19.9193 -3.6565
LeftHand  0.127132 4.79003 2.73368
HEad  -16.4777 38.177 -11.6826
RightUpLeg  -8.48699 -10.0048 6.80574
RightLeg  13.9118 3.49973 0.632036
RightFoot  -2.90792 -0.0122104 -0.172518
RightToes  -27.407 -0.127312 -0.234465
319
root  -0.359749 33.6432 -4.18121 -0.043151 38.5857 -5.98454
LeftUpLeg  -13.5708 -2.67857 18.2093
LeftLeg  11.6671 -2.73629 -0.385045
LeftFoot  9.82487 0.046727 -0.533129
LeftToes  -33.1866 8.556e-007 1.17171e-007
Spine  2.46619 1.84196 3.12162
Spine1  4.87642 3.66866 6.07512
RightShoulder  0.127464 6.49672 8.50261
RightArm  -34.9976 -16.4178 67.868
RightForeArm  32.6035 13.4895 2.41839
RightHand  1.11636 -13.4211 -9.09244
LeftShoulder1  0.0180425 1.59487 -9.79546
LeftArm  -15.2534 14.7483 -73.3533
LeftForeArm  27.2393 -19.5354 -3.57998
LeftHand  0.124117 4.90965 2.59392
HEad  -16.285 38.1792 -11.7131
RightUpLeg  -8.57541 -10.0328 6.84884
RightLeg  13.8761 3.4799 0.626237
RightFoot  -2.88215 -0.0120578 -0.174888
RightToes  -27.3688 -0.127312 -0.234465
320
root  -0.393472 33.6434 -4.1875 0.0392857 38.6314 -5.95682
LeftUpLeg  -13.5341 -2.62344 18.2231
LeftLeg  11.3164 -2.80783 -0.377522
LeftFoot  10.0725 0.0498905 -0.560164
LeftToes  -33.2316 8.556e-007 1.17171e-007
Spine  2.46513 1.75955 3.13825
Spine1  4.87625 3.47887 6.13433
RightShoulder  0.125213 6.50766 8.59031
RightArm  -35.6998 -17.2389 67.8905
RightForeArm  33.4939 12.9164 2.31135
RightHand  1.09262 -13.4084 -8.9009
LeftShoulder1  0.0180425 1.67218 -9.79234
LeftArm  -15.4672 14.9427 -73.3768
LeftForeArm  27.3895 -19.3459 -3.54232
LeftHand  0.123215 4.96758 2.58127
HEad  -16.7202 38.2775 -11.8543
RightUpLeg  -8.68058 -10.0362 6.88618
RightLeg  13.8617 3.44586 0.619235
RightFoot  -2.87297 -0.0120579 -0.174886
RightToes  -27.3004 -0.127312 -0.234465
321
root  -0.426607 33.6436 -4.19639 0.0923468 38.7097 -5.96751
LeftUpLeg  -13.5142 -2.58031 18.2612
LeftLeg  10.9797 -2.90801 -0.373524
LeftFoot  10.3011 0.053247 -0.590738
LeftToes  -33.275 8.556e-007 1.17171e-007
Spine  2.46388 1.66817 3.15773
Spine1  4.8756 3.27545 6.19501
RightShoulder  0.120909 6.45429 8.68436
RightArm  -35.7707 -18.0825 67.8414
RightForeArm  33.7415 12.8544 2.29968
RightHand  1.12256 -13.6177 -9.0068
LeftShoulder1  0.0180425 1.61359 -9.78961
LeftArm  -15.732 15.2381 -73.3521
LeftForeArm  27.3877 -19.2591 -3.52514
LeftHand  0.124055 4.99107 2.69212
HEad  -17.0238 38.4399 -11.9258
RightUpLeg  -8.75816 -10.136 6.94689
RightLeg  13.7882 3.47093 0.619149
RightFoot  -2.82834 -0.0121525 -0.173417
RightToes  -27.3115 -0.127312 -0.234465
322
root  -0.457527 33.6449 -4.20579 0.128746 38.7395 -5.97369
LeftUpLeg  -13.466 -2.40855 18.2748
LeftLeg  10.6747 -3.08876 -0.37991
LeftFoot  10.5197 0.0561248 -0.635461
LeftToes  -33.2414 8.556e-007 1.17171e-007
Spine  2.47552 1.59789 3.17376
Spine1  4.90093 3.1189 6.24452
RightShoulder  0.114913 6.25134 8.70432
RightArm  -35.5204 -18.6879 67.8426
RightForeArm  33.7186 12.9597 2.31919
RightHand  1.11961 -13.5341 -9.04023
LeftShoulder1  0.0180425 1.60957 -9.76517
LeftArm  -15.7447 15.4033 -73.3373
LeftForeArm  27.3616 -19.0963 -3.49298
LeftHand  0.124057 4.96894 2.66412
HEad  -16.9319 38.4979 -11.9764
RightUpLeg  -8.79972 -10.1954 6.98936
RightLeg  13.6964 3.49909 0.618404
RightFoot  -2.77906 -0.0122834 -0.171384
RightToes  -27.2476 -0.127312 -0.234465
323
root  -0.486682 33.6481 -4.21794 0.180139 38.7213 -5.97441
LeftUpLeg  -13.4094 -2.3167 18.3048
LeftLeg  10.3496 -3.14332 -0.368474
LeftFoot  10.7345 0.0574908 -0.656691
LeftToes  -33.2386 8.556e-007 1.17171e-007
Spine  2.45119 1.5298 3.21093
Spine1  4.85441 2.97381 6.3267
RightShoulder  0.110746 6.1738 8.68545
RightArm  -35.361 -19.175 67.7722
RightForeArm  33.6773 13.1285 2.3505
RightHand  1.09995 -13.4556 -8.9299
LeftShoulder1  0.0180425 1.58369 -9.73113
LeftArm  -15.6988 15.5859 -73.3581
LeftForeArm  27.4272 -18.8867 -3.45161
LeftHand  0.122448 5.02571 2.58298
HEad  -16.5301 38.6776 -12.0088
RightUpLeg  -8.86225 -10.234 7.04007
RightLeg  13.6051 3.56062 0.623431
RightFoot  -2.70873 -0.0123925 -0.16969
RightToes  -27.2106 -0.127312 -0.234465
